<svg xmlns="http://www.w3.org/2000/svg" width="835" height="870" viewBox="0 0 835 870"><path d="M83.5,0,167,145H0Z" transform="translate(501 580)" fill="#f0f0f0"/><path d="M83.5,0,167,145H0Z" transform="translate(668)" fill="#f0f0f0"/><path d="M83.5,0,167,145H0Z" transform="translate(501)" fill="#f0f0f0"/><path d="M83.5,0,167,145H0Z" transform="translate(167 580)" fill="#f0f0f0"/><path d="M83.5,0,167,145H0Z" transform="translate(334 725)" fill="#f0f0f0"/><path d="M83.5,0,167,145H0Z" transform="translate(0 580)" fill="#f0f0f0"/><path d="M83.5,0,167,145H0Z" transform="translate(0 725)" fill="#f0f0f0"/><g transform="translate(334 580)" fill="#f0f0f0"><path d="M83.5,0,167,145H0Z" stroke="none"/><path d="M 83.49998474121094 24.04652404785156 L 20.75782775878906 132.9999542236328 L 146.2421722412109 132.9999542236328 L 83.49998474121094 24.04652404785156 M 83.49998474121094 -1.52587890625e-05 L 167.0000152587891 144.9999542236328 L -1.52587890625e-05 144.9999542236328 L 83.49998474121094 -1.52587890625e-05 Z" stroke="none" fill="rgba(54,107,149,0.4)"/></g><path d="M83.5,0,167,145H0Z" transform="translate(168 725)" fill="rgba(54,107,149,0.4)"/><g transform="translate(334)" fill="#f0f0f0"><path d="M83.5,0,167,145H0Z" stroke="none"/><path d="M 83.49998474121094 24.04652404785156 L 20.75782775878906 132.9999542236328 L 146.2421722412109 132.9999542236328 L 83.49998474121094 24.04652404785156 M 83.49998474121094 -1.52587890625e-05 L 167.0000152587891 144.9999542236328 L -1.52587890625e-05 144.9999542236328 L 83.49998474121094 -1.52587890625e-05 Z" stroke="none" fill="rgba(54,107,149,0.4)"/></g><path d="M83.5,0,167,145H0Z" transform="translate(84 435)" fill="rgba(255,255,87,0.4)"/><path d="M83.5,0,167,145H0Z" transform="translate(418 435)" fill="#f0f0f0"/><path d="M83.5,0,167,145H0Z" transform="translate(251 435)" fill="#f0f0f0"/><path d="M83.5,0,167,145H0Z" transform="translate(418 145)" fill="#f0f0f0"/><path d="M83.5,0,167,145H0Z" transform="translate(251 145)" fill="#f0f0f0"/><path d="M83.5,0,167,145H0Z" transform="translate(334 290)" fill="rgba(255,255,87,0.4)"/><path d="M83.5,0,167,145H0Z" transform="translate(167 290)" fill="#f0f0f0"/><path d="M83.5,0,167,145H0Z" transform="translate(501 290)" fill="#f0f0f0"/><path d="M83.5,0,167,145H0Z" transform="translate(668 290)" fill="rgba(54,107,149,0.4)"/><path d="M83.5,0,167,145H0Z" transform="translate(585 435)" fill="#f0f0f0"/><path d="M83.5,0,167,145H0Z" transform="translate(585 145)" fill="#f0f0f0"/></svg>