<svg xmlns="http://www.w3.org/2000/svg" width="2004" height="870" viewBox="0 0 2004 870"><path d="M167,0,334,290H0Z" transform="translate(1002 580)" fill="#f0f0f0"/><path d="M167,0,334,290H0Z" transform="translate(1336 580)" fill="#f0f0f0"/><path d="M167,0,334,290H0Z" transform="translate(0 580)" fill="#f0f0f0"/><path d="M167,0,334,290H0Z" transform="translate(334 580)" fill="#f0f0f0"/><g transform="translate(668 580)" fill="#f0f0f0"><path d="M167,0,334,290H0Z" stroke="none"/><path d="M 167.0000152587891 24.0465087890625 L 20.75784301757812 278 L 313.2421875 278 L 167.0000152587891 24.0465087890625 M 167.0000152587891 -3.0517578125e-05 L 334 290 L 3.0517578125e-05 290 L 167.0000152587891 -3.0517578125e-05 Z" stroke="none" fill="rgba(12,16,77,0.4)"/></g><path d="M167,0,334,290H0Z" transform="translate(167 290)" fill="rgba(255,255,87,0.4)"/><path d="M167,0,334,290H0Z" transform="translate(501 290)" fill="#f0f0f0"/><path d="M167,0,334,290H0Z" transform="translate(835 290)" fill="#f0f0f0"/><path d="M167,0,334,290H0Z" transform="translate(1169 290)" fill="#f0f0f0"/><path d="M167,0,334,290H0Z" transform="translate(1503 290)" fill="#f0f0f0"/><path d="M167,0,334,290H0Z" transform="translate(334)" fill="#f0f0f0"/><path d="M167,0,334,290H0Z" transform="translate(668)" fill="#f0f0f0"/><path d="M167,0,334,290H0Z" transform="translate(1002)" fill="#f0f0f0"/><path d="M167,0,334,290H0Z" transform="translate(1336)" fill="#f0f0f0"/><path d="M167,0,334,290H0Z" transform="translate(1670)" fill="rgba(12,16,77,0.4)"/></svg>